<svg id="Group_2" data-name="Group 2" xmlns="http://www.w3.org/2000/svg" width="258.231" height="52.305" viewBox="0 0 258.231 52.305">
  <g id="ha-logo-text" transform="translate(0 20.048)">
    <path id="Path_1" data-name="Path 1" d="M9.93,38.45V31.16H4.08v7.29H0V20.34H4.08v7.2H9.93v-7.2h4.08V38.45Z" transform="translate(0 -20.05)" fill="#fff"/>
    <path id="Path_2" data-name="Path 2" d="M35.28,38.45H31l-1-3.54H24l-1,3.54H18.77l5.52-18.12h5.44ZM24.92,31.51h4.16L27,23.93Z" transform="translate(0 -20.05)" fill="#fff"/>
    <path id="Path_3" data-name="Path 3" d="M43.93,26.54V38.45H40.04V20.33h5.01L51,32.82V20.33h3.89V38.45H49.86Z" transform="translate(0 -20.05)" fill="#fff"/>
    <path id="Path_4" data-name="Path 4" d="M66.45,38.72a14.94,14.94,0,0,1-5.85-1.17l.68-3.16a17.22,17.22,0,0,0,5.22.87c2.09,0,2.5-.41,2.5-1.93s-.08-1.82-3-2.48c-4.38-1-5-1.82-5-5.74,0-3.62,1.28-5.06,6.26-5.06a26.37,26.37,0,0,1,5.49.6l-.41,3.43a27.65,27.65,0,0,0-5-.52c-1.82,0-2.23.33-2.23,1.66,0,1.74.08,1.77,2.94,2.45,4.9,1.17,5.14,2.12,5.14,5.68s-1.17,5.36-6.64,5.36" transform="translate(0 -20.05)" fill="#fff"/>
    <path id="Path_5" data-name="Path 5" d="M78.67,38.45V20.34H90.06v3.61H82.75v3.32h6.74v3.62H82.75v3.94h7.31v3.62H78.67Z" transform="translate(0 -20.05)" fill="#fff"/>
    <path id="Path_6" data-name="Path 6" d="M99.8,26.54V38.45H95.91V20.33h5.01l5.96,12.49V20.33h3.88V38.45h-5.03Z" transform="translate(0 -20.05)" fill="#fff"/>
    <path id="Path_7" data-name="Path 7" d="M124.75,38.45H117V20.33h7.15c3.78,0,5.17,1.52,5.17,4v1.85a2.88,2.88,0,0,1-2,2.86A3.42,3.42,0,0,1,130,32.36v1.77c0,2.56-1.63,4.33-5.25,4.33m.52-13.55c0-.79-.49-1.28-1.63-1.28H121.1v4.13h2.53a1.37,1.37,0,0,0,1.63-1.28V24.9Zm.65,7.56a1.46,1.46,0,0,0-1.71-1.52h-3.1v4.22h2.53c1.28,0,2.29-.27,2.29-1.58V32.47Z" transform="translate(0 -20.05)" fill="#fff"/>
    <path id="Path_8" data-name="Path 8" d="M135.3,38.45V20.34h11.4v3.61h-7.32v3.32h6.75v3.62h-6.75v3.94h7.32v3.62H135.3Z" transform="translate(0 -20.05)" fill="#fff"/>
    <path id="Path_9" data-name="Path 9" d="M159,32.82h-2.39v5.63h-4.08V20.34h7.54c4.41,0,6,1.74,6,5.14v2.23c0,2.26-.82,3.78-2.64,4.54l4.38,6.2H163Zm3-7c0-1.36-.52-1.9-2.18-1.9h-3.24v5.33h3.24c1.74,0,2.18-.63,2.18-2V25.86Z" transform="translate(0 -20.05)" fill="#fff"/>
    <path id="Path_10" data-name="Path 10" d="M178.58,38.72c-4.41,0-6.64-2.26-6.64-5.55V25.61c0-3.35,2.23-5.55,6.64-5.55a32.14,32.14,0,0,1,5.79.57l-.49,3.56a42.549,42.549,0,0,0-5.3-.44c-2,0-2.56,1.06-2.56,2.48v6.23c0,1.42.52,2.58,2.56,2.58a16.39,16.39,0,0,0,2.42-.16V29.34h3.83v8.51a23,23,0,0,1-6.26.87" transform="translate(0 -20.05)" fill="#fff"/>
  </g>
  <g id="ha-logo-icon" transform="translate(199.72)">
    <path id="Path_11" data-name="Path 11" d="M205.72,5.16c-3.18,1.31-4.91,2.55-5.3,3.78a2.08,2.08,0,0,0,.3,1.84c2.82,4.16,22.18,5.71,22.37,5.72,2.77.22,7.35-1.33,12.67-3.13l1-.34c0,2.32-.12,4.7-.23,6.84s-.19,4.07-.19,5.55c0,2.07.16,3.44.63,4.19.08.13,8.26,12.53,13.34,13.65a2.77,2.77,0,0,0,2.17-.32c3-1.93,6.24-16.65,5.69-25.83-.27-4.6-1.43-7.43-3.43-8.41-3.53-1.72-9.91.06-16.5,2.24C238.15,6.1,237.39,2,234.88.7c-4.15-2.19-21.22,1.18-29.17,4.46M223.21,15c-7.58-.59-19.58-2.61-21.24-5.07a.58.58,0,0,1-.11-.54c.08-.27.65-1.28,4.43-2.84C215.09,2.92,231,.35,234.18,2c1.94,1,2.51,5,2.59,9.41l-1.49.5c-4.94,1.67-9.61,3.25-12.07,3.06m30.9-4.94c1.44.7,2.36,3.24,2.59,7.14.56,9.42-2.9,23.11-5,24.47a1.31,1.31,0,0,1-1,.11c-3.67-.81-10.46-9.93-12.39-13a8.46,8.46,0,0,1-.4-3.38c0-1.6.09-3.56.19-5.48.12-2.45.24-5,.24-7.42,6.25-2.08,12.72-4,15.81-2.46" transform="translate(-199.72 -0.002)" fill="#fff"/>
    <path id="Path_12" data-name="Path 12" d="M237.73,15.67c-3.56,1.15-9.67,3.5-10.6,6.35a15.82,15.82,0,0,0-.43,4.43c0,1.81.1,4,.23,6.29-7.39,1.28-18,4.84-19.13,8.92a3.091,3.091,0,0,0-.12.84,5,5,0,0,0,2,3.55c4.13,3.73,14.65,7.25,17.88,6,1.64-.65,2.18-3.05,2.18-7.83,0-2.49-.15-5.64-.37-9.52a14.41,14.41,0,0,1,3.14-.1c2.28.26,5.06,3.75,7.29,6.56s3.9,4.9,5.67,5.3c2.16.48,3.52-2.53,4-3.52,2.78-6.15,6.64-26,2.74-28.88-2.86-2.08-14,1.47-14.43,1.62M229,26.37a13.79,13.79,0,0,1,.32-3.62c.32-1,3.13-2.87,8.52-4.68,6.5-2.18,12.1-2.74,13-2.15.35.29.68,1.77.68,4.44a60,60,0,0,1-1,10c-1.45,8.32-3.56,13.28-4.57,13.77-1-.3-2.75-2.5-4.3-4.45-2.63-3.3-5.6-7-8.84-7.42a16.79,16.79,0,0,0-3.53.12c-.12-2.18-.22-4.3-.22-6m-17.79,18A3.05,3.05,0,0,1,210,42.47a.729.729,0,0,1,0-.19c.69-2.46,10.16-6,17-7.24.15,2.56.35,6.14.35,9.17,0,2.83-.18,5.16-.75,5.68-2.05.74-11.7-2.18-15.44-5.56M227.13,22Z" transform="translate(-199.72 -0.002)" fill="#fff"/>
    <path id="Path_13" data-name="Path 13" d="M202.55,11.94c-1.88,1.13-2.8,2.2-2.83,3.29,0,2.22,4.41,3.12,10,4.26,4.61.95,9.84,2,10.88,3.82a21.561,21.561,0,0,1,1.77,6.43l-1.54.38c-6.26,1.56-12.74,3.17-13.65,6.15a2,2,0,0,0-.09.6c0,1.2,1,2.54,3.09,4,4,2.82,11.81,5.85,13.3,4.74.65-.47.91-2.44.91-5.05a69.838,69.838,0,0,0-.86-10c4.17-1.07,7.51-2.12,8.3-3.65.94-1.83,1.69-7.08,1.69-11.85a23.55,23.55,0,0,0-.79-6.8A3.89,3.89,0,0,0,231,5.84c-3.67-1.81-21.75,2.07-28.45,6.1m.55.91c6.83-4.11,24.3-7.59,27.43-6.05a3,3,0,0,1,1.18,1.8,21.92,21.92,0,0,1,.74,6.37c0,4.71-.78,9.9-1.59,11.47-.58,1.14-3.86,2.14-7.53,3.08a24.5,24.5,0,0,0-1.84-6.7c-1.28-2.21-6.29-3.24-11.58-4.32-4.07-.83-9.13-1.87-9.13-3.23,0-.66.84-1.52,2.32-2.41m7,26.68c-1.28-1-2-1.93-2-2.63a.94.94,0,0,1,0-.28c.73-2.4,7.48-4.08,12.9-5.43l1.44-.36A77.71,77.71,0,0,1,223.26,41c0,2.07-.15,3.54-.45,3.85-.93.54-8.74-2.1-12.74-5.27" transform="translate(-199.72 -0.002)" fill="#fff"/>
  </g>
</svg>
